<?xml version="1.0" encoding="iso-8859-1"?>
<!-- Uploaded to: SVG Repo, www.svgrepo.com, Generator: SVG Repo Mixer Tools -->
<svg version="1.1" id="Layer_1" xmlns="http://www.w3.org/2000/svg" xmlns:xlink="http://www.w3.org/1999/xlink" 
	 viewBox="0 0 512 512" xml:space="preserve">
<path style="fill:#2D2D2D;" d="M501.552,20.896H214.848v20.896h276.256v292.576H20.896V41.792h53.168V20.896H10.448
	C4.704,20.896,0,25.6,0,31.344v323.92h512V31.344C512,25.6,507.296,20.896,501.552,20.896z"/>
<g>
	<path style="fill:#E8E8E8;" d="M0,397.064c0,5.744,4.704,10.448,10.448,10.448h182.856h125.392h182.856
		c5.744,0,10.448-4.704,10.448-10.448v-41.8H0V397.064z"/>
	<polygon style="fill:#E8E8E8;" points="146.288,480.648 146.288,491.104 365.712,491.104 365.712,480.648 329.144,480.648 
		182.856,480.648 	"/>
</g>
<polygon style="fill:#C9C9C9;" points="182.856,480.648 329.144,480.648 318.696,407.512 193.304,407.512 "/>
<path style="fill:#8AD5DD;" d="M144.456,223.544l-70.392,55.384V41.792H20.896v292.576h470.2V41.792H214.848v237.136
	L144.456,223.544z M262.664,107.144h184v16h-184V107.144z M262.664,157.808h184v16h-184V157.808z M262.664,189.544h184v16h-184
	V189.544z M262.664,221.28h184v16h-184V221.28z M262.664,253.016h184v16h-184V253.016z"/>
<polygon style="fill:#DB2B42;" points="74.072,278.928 144.456,223.544 144.456,20.896 74.072,20.896 74.072,41.792 "/>
<polygon style="fill:#EA5A74;" points="144.456,223.544 214.848,278.928 214.848,41.792 214.848,20.896 144.456,20.896 "/>
<rect x="262.664" y="107.144" style="fill:#FFFFFF;" width="184" height="16"/>
<g>
	<rect x="262.664" y="157.808" style="fill:#6CB8BC;" width="184" height="16"/>
	<rect x="262.664" y="189.544" style="fill:#6CB8BC;" width="184" height="16"/>
	<rect x="262.664" y="221.28" style="fill:#6CB8BC;" width="184" height="16"/>
	<rect x="262.664" y="253.016" style="fill:#6CB8BC;" width="184" height="16"/>
</g>
</svg>