<?xml version="1.0" standalone="no"?>
<!DOCTYPE svg PUBLIC "-//W3C//DTD SVG 20010904//EN"
 "http://www.w3.org/TR/2001/REC-SVG-20010904/DTD/svg10.dtd">
<svg version="1.0" xmlns="http://www.w3.org/2000/svg"
 width="512.000000pt" height="512.000000pt" viewBox="0 0 512.000000 512.000000"
 preserveAspectRatio="xMidYMid meet">

<g transform="translate(0.000000,512.000000) scale(0.100000,-0.100000)"
fill="#000000" stroke="none">
<path d="M264 4720 c-12 -4 -31 -21 -43 -36 l-21 -27 0 -1358 0 -1359 2360 0
2360 0 0 1361 0 1361 -34 34 -34 34 -2284 -1 c-1255 0 -2293 -4 -2304 -9z"/>
<path d="M2010 1405 c0 -13 67 -15 545 -15 478 0 545 2 545 15 0 13 -67 15
-545 15 -478 0 -545 -2 -545 -15z"/>
<path d="M1975 1093 c-3 -21 -8 -48 -11 -60 l-4 -23 594 0 594 0 -8 33 c-4 17
-11 44 -14 60 l-6 27 -570 0 -569 0 -6 -37z"/>
<path d="M1760 788 c0 -5 6 -8 13 -8 6 -1 2 -6 -10 -13 -16 -9 -20 -16 -13
-27 8 -13 116 -15 847 -15 679 0 842 3 861 13 13 8 21 17 17 20 -4 4 -147 10
-318 14 -172 4 -374 10 -451 13 -94 5 -142 3 -149 -4 -14 -14 -494 -15 -499
-2 -4 11 -298 19 -298 9z"/>
</g>
</svg>
